{
	"asset":{
		"generator":"Khronos glTF Blender I/O v3.5.30",
		"version":"2.0"
	},
	"scene":0,
	"scenes":[
		{
			"name":"Scene",
			"nodes":[
				0
			]
		}
	],
	"nodes":[
		{
			"mesh":0,
			"name":"Cube",
			"translation":[
				-0.007437517866492271,
				0,
				0.01573248952627182
			]
		}
	],
	"materials":[
		{
			"doubleSided":true,
			"name":"Blue",
			"pbrMetallicRoughness":{
				"baseColorFactor":[
					0,
					0.761282742023468,
					0.8000000715255737,
					1
				],
				"metallicFactor":0,
				"roughnessFactor":0.5
			}
		},
		{
			"doubleSided":true,
			"name":"grey",
			"pbrMetallicRoughness":{
				"baseColorFactor":[
					0.057802293449640274,
					0.057802293449640274,
					0.057802293449640274,
					1
				],
				"metallicFactor":0,
				"roughnessFactor":0.5
			}
		},
		{
			"doubleSided":true,
			"name":"Black",
			"pbrMetallicRoughness":{
				"baseColorFactor":[
					0,
					0,
					0,
					1
				],
				"metallicFactor":0,
				"roughnessFactor":0.5
			}
		},
		{
			"doubleSided":true,
			"name":"Red",
			"pbrMetallicRoughness":{
				"baseColorFactor":[
					0.8000000715255737,
					0,
					0.0015575611032545567,
					1
				],
				"metallicFactor":0,
				"roughnessFactor":0.5
			}
		},
		{
			"doubleSided":true,
			"name":"White",
			"pbrMetallicRoughness":{
				"baseColorFactor":[
					0.800000011920929,
					0.800000011920929,
					0.800000011920929,
					1
				],
				"metallicFactor":0,
				"roughnessFactor":0.5
			}
		}
	],
	"meshes":[
		{
			"name":"Cube",
			"primitives":[
				{
					"attributes":{
						"POSITION":0,
						"TEXCOORD_0":1,
						"NORMAL":2
					},
					"indices":3,
					"material":0
				},
				{
					"attributes":{
						"POSITION":4,
						"TEXCOORD_0":5,
						"NORMAL":6
					},
					"indices":7,
					"material":1
				},
				{
					"attributes":{
						"POSITION":8,
						"TEXCOORD_0":9,
						"NORMAL":10
					},
					"indices":11,
					"material":2
				},
				{
					"attributes":{
						"POSITION":12,
						"TEXCOORD_0":13,
						"NORMAL":14
					},
					"indices":15,
					"material":3
				},
				{
					"attributes":{
						"POSITION":16,
						"TEXCOORD_0":17,
						"NORMAL":18
					},
					"indices":19,
					"material":4
				}
			]
		}
	],
	"accessors":[
		{
			"bufferView":0,
			"componentType":5126,
			"count":1465,
			"max":[
				0.60198575258255,
				0.49876436591148376,
				1.8596323728561401
			],
			"min":[
				-0.600925087928772,
				-0.27496567368507385,
				-1.42307448387146
			],
			"type":"VEC3"
		},
		{
			"bufferView":1,
			"componentType":5126,
			"count":1465,
			"type":"VEC2"
		},
		{
			"bufferView":2,
			"componentType":5126,
			"count":1465,
			"type":"VEC3"
		},
		{
			"bufferView":3,
			"componentType":5123,
			"count":2649,
			"type":"SCALAR"
		},
		{
			"bufferView":4,
			"componentType":5126,
			"count":228,
			"max":[
				0.6188620924949646,
				0.1438925862312317,
				1.9285036325454712
			],
			"min":[
				-0.6188620924949646,
				-0.2391989678144455,
				-1.449933648109436
			],
			"type":"VEC3"
		},
		{
			"bufferView":5,
			"componentType":5126,
			"count":228,
			"type":"VEC2"
		},
		{
			"bufferView":6,
			"componentType":5126,
			"count":228,
			"type":"VEC3"
		},
		{
			"bufferView":7,
			"componentType":5123,
			"count":360,
			"type":"SCALAR"
		},
		{
			"bufferView":8,
			"componentType":5126,
			"count":581,
			"max":[
				0.60198575258255,
				0.46192666888237,
				1.9285036325454712
			],
			"min":[
				-0.60198575258255,
				-0.44455766677856445,
				-1.3729517459869385
			],
			"type":"VEC3"
		},
		{
			"bufferView":9,
			"componentType":5126,
			"count":581,
			"type":"VEC2"
		},
		{
			"bufferView":10,
			"componentType":5126,
			"count":581,
			"type":"VEC3"
		},
		{
			"bufferView":11,
			"componentType":5123,
			"count":1023,
			"type":"SCALAR"
		},
		{
			"bufferView":12,
			"componentType":5126,
			"count":32,
			"max":[
				0.48835617303848267,
				0.1438925862312317,
				-1.3847681283950806
			],
			"min":[
				-0.48835617303848267,
				0.04024992883205414,
				-1.3847681283950806
			],
			"type":"VEC3"
		},
		{
			"bufferView":13,
			"componentType":5126,
			"count":32,
			"type":"VEC2"
		},
		{
			"bufferView":14,
			"componentType":5126,
			"count":32,
			"type":"VEC3"
		},
		{
			"bufferView":15,
			"componentType":5123,
			"count":48,
			"type":"SCALAR"
		},
		{
			"bufferView":16,
			"componentType":5126,
			"count":48,
			"max":[
				0.5557942390441895,
				0.1438925862312317,
				1.3865920305252075
			],
			"min":[
				-0.5557942390441895,
				-0.41205471754074097,
				-1.3847681283950806
			],
			"type":"VEC3"
		},
		{
			"bufferView":17,
			"componentType":5126,
			"count":48,
			"type":"VEC2"
		},
		{
			"bufferView":18,
			"componentType":5126,
			"count":48,
			"type":"VEC3"
		},
		{
			"bufferView":19,
			"componentType":5123,
			"count":96,
			"type":"SCALAR"
		}
	],
	"bufferViews":[
		{
			"buffer":0,
			"byteLength":17580,
			"byteOffset":0,
			"target":34962
		},
		{
			"buffer":0,
			"byteLength":11720,
			"byteOffset":17580,
			"target":34962
		},
		{
			"buffer":0,
			"byteLength":17580,
			"byteOffset":29300,
			"target":34962
		},
		{
			"buffer":0,
			"byteLength":5298,
			"byteOffset":46880,
			"target":34963
		},
		{
			"buffer":0,
			"byteLength":2736,
			"byteOffset":52180,
			"target":34962
		},
		{
			"buffer":0,
			"byteLength":1824,
			"byteOffset":54916,
			"target":34962
		},
		{
			"buffer":0,
			"byteLength":2736,
			"byteOffset":56740,
			"target":34962
		},
		{
			"buffer":0,
			"byteLength":720,
			"byteOffset":59476,
			"target":34963
		},
		{
			"buffer":0,
			"byteLength":6972,
			"byteOffset":60196,
			"target":34962
		},
		{
			"buffer":0,
			"byteLength":4648,
			"byteOffset":67168,
			"target":34962
		},
		{
			"buffer":0,
			"byteLength":6972,
			"byteOffset":71816,
			"target":34962
		},
		{
			"buffer":0,
			"byteLength":2046,
			"byteOffset":78788,
			"target":34963
		},
		{
			"buffer":0,
			"byteLength":384,
			"byteOffset":80836,
			"target":34962
		},
		{
			"buffer":0,
			"byteLength":256,
			"byteOffset":81220,
			"target":34962
		},
		{
			"buffer":0,
			"byteLength":384,
			"byteOffset":81476,
			"target":34962
		},
		{
			"buffer":0,
			"byteLength":96,
			"byteOffset":81860,
			"target":34963
		},
		{
			"buffer":0,
			"byteLength":576,
			"byteOffset":81956,
			"target":34962
		},
		{
			"buffer":0,
			"byteLength":384,
			"byteOffset":82532,
			"target":34962
		},
		{
			"buffer":0,
			"byteLength":576,
			"byteOffset":82916,
			"target":34962
		},
		{
			"buffer":0,
			"byteLength":192,
			"byteOffset":83492,
			"target":34963
		}
	],
	"buffers":[
		{
			"byteLength":83684,
			"uri":"data:application/octet-stream;base64,"
		}
	]
}
