{
	"asset":{
		"generator":"Khronos glTF Blender I/O v3.5.30",
		"version":"2.0"
	},
	"extensionsUsed":[
		"KHR_materials_emissive_strength"
	],
	"scene":0,
	"scenes":[
		{
			"name":"Scene",
			"nodes":[
				0,
				1,
				2,
				3,
				4,
				5,
				6,
				7,
				8
			]
		}
	],
	"nodes":[
		{
			"mesh":0,
			"name":"GreenHat",
			"rotation":[
				0.7071068286895752,
				0,
				0,
				0.7071068286895752
			],
			"scale":[
				0.5261486172676086,
				0.13434162735939026,
				0.5261486172676086
			],
			"translation":[
				-0.00016203522682189941,
				2.1219284534454346,
				0.15980945527553558
			]
		},
		{
			"mesh":1,
			"name":"GreenLight",
			"rotation":[
				0.7071068286895752,
				0,
				0,
				0.7071068286895752
			],
			"scale":[
				0.5261486172676086,
				0.13434162735939026,
				0.5261486172676086
			],
			"translation":[
				0.06833416223526001,
				2.147470712661743,
				0.08466120064258575
			]
		},
		{
			"mesh":2,
			"name":"YellowHat",
			"rotation":[
				0.7071068286895752,
				0,
				0,
				0.7071068286895752
			],
			"scale":[
				0.5261486172676086,
				0.13434162735939026,
				0.5261486172676086
			],
			"translation":[
				-0.00016203522682189941,
				2.2670226097106934,
				0.1586446911096573
			]
		},
		{
			"mesh":3,
			"name":"YellowLight",
			"rotation":[
				0.7071068286895752,
				0,
				0,
				0.7071068286895752
			],
			"scale":[
				0.5261486172676086,
				0.13434162735939026,
				0.5261486172676086
			],
			"translation":[
				0.06833416223526001,
				2.292564868927002,
				0.08466120064258575
			]
		},
		{
			"mesh":4,
			"name":"RedHat",
			"rotation":[
				0.7071068286895752,
				0,
				0,
				0.7071068286895752
			],
			"scale":[
				0.5261486172676086,
				0.13434162735939026,
				0.5261486172676086
			],
			"translation":[
				-0.00016203522682189941,
				2.414315700531006,
				0.15902800858020782
			]
		},
		{
			"mesh":5,
			"name":"RedLight",
			"rotation":[
				0.7071068286895752,
				0,
				0,
				0.7071068286895752
			],
			"scale":[
				0.5261486172676086,
				0.13434162735939026,
				0.5261486172676086
			],
			"translation":[
				0.06833416223526001,
				2.4398579597473145,
				0.08466120064258575
			]
		},
		{
			"mesh":6,
			"name":"LightBox",
			"scale":[
				0.11217451095581055,
				0.11217451095581055,
				0.11217451095581055
			],
			"translation":[
				-0.0003250751178711653,
				2.3774220943450928,
				-0.0013349696528166533
			]
		},
		{
			"mesh":7,
			"name":"Poll",
			"scale":[
				0.05210458114743233,
				0.05210458114743233,
				0.05210458114743233
			],
			"translation":[
				0.10508022457361221,
				2.2293756008148193,
				-0.0027569234371185303
			]
		},
		{
			"mesh":8,
			"name":"Cube",
			"rotation":[
				0,
				-1,
				0,
				4.371138828673793e-08
			],
			"translation":[
				-0.007437517866492271,
				0,
				4.935925483703613
			]
		}
	],
	"materials":[
		{
			"doubleSided":true,
			"emissiveFactor":[
				0,
				1,
				0.00518773915246129
			],
			"extensions":{
				"KHR_materials_emissive_strength":{
					"emissiveStrength":4.299999713897705
				}
			},
			"name":"Material.002",
			"pbrMetallicRoughness":{
				"baseColorFactor":[
					0,
					0,
					0,
					1
				]
			}
		},
		{
			"doubleSided":true,
			"emissiveFactor":[
				0.9439085125923157,
				1,
				0
			],
			"name":"Material.003",
			"pbrMetallicRoughness":{
				"baseColorFactor":[
					0,
					0,
					0,
					1
				]
			}
		},
		{
			"doubleSided":true,
			"emissiveFactor":[
				1,
				0.0007998422370292246,
				0.0027763082180172205
			],
			"name":"Material.004",
			"pbrMetallicRoughness":{
				"baseColorFactor":[
					0,
					0,
					0,
					1
				]
			}
		},
		{
			"doubleSided":true,
			"name":"Blue",
			"pbrMetallicRoughness":{
				"baseColorFactor":[
					0,
					0.761282742023468,
					0.8000000715255737,
					1
				],
				"metallicFactor":0,
				"roughnessFactor":0.5
			}
		},
		{
			"doubleSided":true,
			"name":"grey",
			"pbrMetallicRoughness":{
				"baseColorFactor":[
					0.057802293449640274,
					0.057802293449640274,
					0.057802293449640274,
					1
				],
				"metallicFactor":0,
				"roughnessFactor":0.5
			}
		},
		{
			"doubleSided":true,
			"name":"Black",
			"pbrMetallicRoughness":{
				"baseColorFactor":[
					0,
					0,
					0,
					1
				],
				"metallicFactor":0,
				"roughnessFactor":0.5
			}
		},
		{
			"doubleSided":true,
			"name":"Red",
			"pbrMetallicRoughness":{
				"baseColorFactor":[
					0.8000000715255737,
					0,
					0.0015575611032545567,
					1
				],
				"metallicFactor":0,
				"roughnessFactor":0.5
			}
		},
		{
			"doubleSided":true,
			"name":"White",
			"pbrMetallicRoughness":{
				"baseColorFactor":[
					0.800000011920929,
					0.800000011920929,
					0.800000011920929,
					1
				],
				"metallicFactor":0,
				"roughnessFactor":0.5
			}
		}
	],
	"meshes":[
		{
			"name":"Cylinder.006",
			"primitives":[
				{
					"attributes":{
						"POSITION":0,
						"TEXCOORD_0":1,
						"NORMAL":2
					},
					"indices":3
				}
			]
		},
		{
			"name":"Cylinder.007",
			"primitives":[
				{
					"attributes":{
						"POSITION":4,
						"TEXCOORD_0":5,
						"NORMAL":6
					},
					"indices":7,
					"material":0
				}
			]
		},
		{
			"name":"Cylinder.008",
			"primitives":[
				{
					"attributes":{
						"POSITION":8,
						"TEXCOORD_0":9,
						"NORMAL":10
					},
					"indices":3
				}
			]
		},
		{
			"name":"Cylinder.009",
			"primitives":[
				{
					"attributes":{
						"POSITION":11,
						"TEXCOORD_0":12,
						"NORMAL":13
					},
					"indices":7,
					"material":1
				}
			]
		},
		{
			"name":"Cylinder.010",
			"primitives":[
				{
					"attributes":{
						"POSITION":14,
						"TEXCOORD_0":15,
						"NORMAL":16
					},
					"indices":3
				}
			]
		},
		{
			"name":"Cylinder.011",
			"primitives":[
				{
					"attributes":{
						"POSITION":17,
						"TEXCOORD_0":18,
						"NORMAL":19
					},
					"indices":7,
					"material":2
				}
			]
		},
		{
			"name":"Cube.002",
			"primitives":[
				{
					"attributes":{
						"POSITION":20,
						"TEXCOORD_0":21,
						"NORMAL":22
					},
					"indices":23
				}
			]
		},
		{
			"name":"Cube.003",
			"primitives":[
				{
					"attributes":{
						"POSITION":24,
						"TEXCOORD_0":25,
						"NORMAL":26
					},
					"indices":27
				}
			]
		},
		{
			"name":"Cube.001",
			"primitives":[
				{
					"attributes":{
						"POSITION":28,
						"TEXCOORD_0":29,
						"NORMAL":30
					},
					"indices":31,
					"material":3
				},
				{
					"attributes":{
						"POSITION":32,
						"TEXCOORD_0":33,
						"NORMAL":34
					},
					"indices":35,
					"material":4
				},
				{
					"attributes":{
						"POSITION":36,
						"TEXCOORD_0":37,
						"NORMAL":38
					},
					"indices":39,
					"material":5
				},
				{
					"attributes":{
						"POSITION":40,
						"TEXCOORD_0":41,
						"NORMAL":42
					},
					"indices":43,
					"material":6
				},
				{
					"attributes":{
						"POSITION":44,
						"TEXCOORD_0":45,
						"NORMAL":46
					},
					"indices":47,
					"material":7
				}
			]
		}
	],
	"accessors":[
		{
			"bufferView":0,
			"componentType":5126,
			"count":464,
			"max":[
				0.11000443249940872,
				0.3938055634498596,
				0.04668465256690979
			],
			"min":[
				-0.11009318381547928,
				-0.3761945962905884,
				-0.1064014732837677
			],
			"type":"VEC3"
		},
		{
			"bufferView":1,
			"componentType":5126,
			"count":464,
			"type":"VEC2"
		},
		{
			"bufferView":2,
			"componentType":5126,
			"count":464,
			"type":"VEC3"
		},
		{
			"bufferView":3,
			"componentType":5123,
			"count":828,
			"type":"SCALAR"
		},
		{
			"bufferView":4,
			"componentType":5126,
			"count":256,
			"max":[
				-0.03027281165122986,
				0.2320980727672577,
				0.14764487743377686
			],
			"min":[
				-0.2302728295326233,
				0.16570831835269928,
				-0.052355144172906876
			],
			"type":"VEC3"
		},
		{
			"bufferView":5,
			"componentType":5126,
			"count":256,
			"type":"VEC2"
		},
		{
			"bufferView":6,
			"componentType":5126,
			"count":256,
			"type":"VEC3"
		},
		{
			"bufferView":7,
			"componentType":5123,
			"count":654,
			"type":"SCALAR"
		},
		{
			"bufferView":8,
			"componentType":5126,
			"count":464,
			"max":[
				0.11000443249940872,
				0.3938055634498596,
				0.04668465256690979
			],
			"min":[
				-0.11009318381547928,
				-0.3761945962905884,
				-0.1064014732837677
			],
			"type":"VEC3"
		},
		{
			"bufferView":9,
			"componentType":5126,
			"count":464,
			"type":"VEC2"
		},
		{
			"bufferView":10,
			"componentType":5126,
			"count":464,
			"type":"VEC3"
		},
		{
			"bufferView":11,
			"componentType":5126,
			"count":256,
			"max":[
				-0.03027281165122986,
				0.2320980727672577,
				0.14764487743377686
			],
			"min":[
				-0.2302728295326233,
				0.16570831835269928,
				-0.052355144172906876
			],
			"type":"VEC3"
		},
		{
			"bufferView":12,
			"componentType":5126,
			"count":256,
			"type":"VEC2"
		},
		{
			"bufferView":13,
			"componentType":5126,
			"count":256,
			"type":"VEC3"
		},
		{
			"bufferView":14,
			"componentType":5126,
			"count":464,
			"max":[
				0.11000443249940872,
				0.3938055634498596,
				0.04668465256690979
			],
			"min":[
				-0.11009318381547928,
				-0.3761945962905884,
				-0.1064014732837677
			],
			"type":"VEC3"
		},
		{
			"bufferView":15,
			"componentType":5126,
			"count":464,
			"type":"VEC2"
		},
		{
			"bufferView":16,
			"componentType":5126,
			"count":464,
			"type":"VEC3"
		},
		{
			"bufferView":17,
			"componentType":5126,
			"count":256,
			"max":[
				-0.03027281165122986,
				0.2320980727672577,
				0.14764487743377686
			],
			"min":[
				-0.2302728295326233,
				0.16570831835269928,
				-0.052355144172906876
			],
			"type":"VEC3"
		},
		{
			"bufferView":18,
			"componentType":5126,
			"count":256,
			"type":"VEC2"
		},
		{
			"bufferView":19,
			"componentType":5126,
			"count":256,
			"type":"VEC3"
		},
		{
			"bufferView":20,
			"componentType":5126,
			"count":1392,
			"max":[
				1,
				1,
				1
			],
			"min":[
				-1,
				-3.3545100688934326,
				-1
			],
			"type":"VEC3"
		},
		{
			"bufferView":21,
			"componentType":5126,
			"count":1392,
			"type":"VEC2"
		},
		{
			"bufferView":22,
			"componentType":5126,
			"count":1392,
			"type":"VEC3"
		},
		{
			"bufferView":23,
			"componentType":5123,
			"count":2148,
			"type":"SCALAR"
		},
		{
			"bufferView":24,
			"componentType":5126,
			"count":8288,
			"max":[
				35.611915588378906,
				1,
				1
			],
			"min":[
				-1,
				-53.92817306518555,
				-1
			],
			"type":"VEC3"
		},
		{
			"bufferView":25,
			"componentType":5126,
			"count":8288,
			"type":"VEC2"
		},
		{
			"bufferView":26,
			"componentType":5126,
			"count":8288,
			"type":"VEC3"
		},
		{
			"bufferView":27,
			"componentType":5123,
			"count":13044,
			"type":"SCALAR"
		},
		{
			"bufferView":28,
			"componentType":5126,
			"count":1539,
			"max":[
				0.60198575258255,
				0.49876436591148376,
				1.8596323728561401
			],
			"min":[
				-0.600925087928772,
				-0.27496567368507385,
				-1.42307448387146
			],
			"type":"VEC3"
		},
		{
			"bufferView":29,
			"componentType":5126,
			"count":1539,
			"type":"VEC2"
		},
		{
			"bufferView":30,
			"componentType":5126,
			"count":1539,
			"type":"VEC3"
		},
		{
			"bufferView":31,
			"componentType":5123,
			"count":2649,
			"type":"SCALAR"
		},
		{
			"bufferView":32,
			"componentType":5126,
			"count":228,
			"max":[
				0.6188620924949646,
				0.1438925862312317,
				1.9285036325454712
			],
			"min":[
				-0.6188620924949646,
				-0.2391989678144455,
				-1.449933648109436
			],
			"type":"VEC3"
		},
		{
			"bufferView":33,
			"componentType":5126,
			"count":228,
			"type":"VEC2"
		},
		{
			"bufferView":34,
			"componentType":5126,
			"count":228,
			"type":"VEC3"
		},
		{
			"bufferView":35,
			"componentType":5123,
			"count":360,
			"type":"SCALAR"
		},
		{
			"bufferView":36,
			"componentType":5126,
			"count":585,
			"max":[
				0.60198575258255,
				0.46192666888237,
				1.9285036325454712
			],
			"min":[
				-0.60198575258255,
				-0.44455766677856445,
				-1.3729517459869385
			],
			"type":"VEC3"
		},
		{
			"bufferView":37,
			"componentType":5126,
			"count":585,
			"type":"VEC2"
		},
		{
			"bufferView":38,
			"componentType":5126,
			"count":585,
			"type":"VEC3"
		},
		{
			"bufferView":39,
			"componentType":5123,
			"count":1023,
			"type":"SCALAR"
		},
		{
			"bufferView":40,
			"componentType":5126,
			"count":32,
			"max":[
				0.48835617303848267,
				0.1438925862312317,
				-1.3847681283950806
			],
			"min":[
				-0.48835617303848267,
				0.04024992883205414,
				-1.3847681283950806
			],
			"type":"VEC3"
		},
		{
			"bufferView":41,
			"componentType":5126,
			"count":32,
			"type":"VEC2"
		},
		{
			"bufferView":42,
			"componentType":5126,
			"count":32,
			"type":"VEC3"
		},
		{
			"bufferView":43,
			"componentType":5123,
			"count":48,
			"type":"SCALAR"
		},
		{
			"bufferView":44,
			"componentType":5126,
			"count":48,
			"max":[
				0.5557942390441895,
				0.1438925862312317,
				1.3865920305252075
			],
			"min":[
				-0.5557942390441895,
				-0.41205471754074097,
				-1.3847681283950806
			],
			"type":"VEC3"
		},
		{
			"bufferView":45,
			"componentType":5126,
			"count":48,
			"type":"VEC2"
		},
		{
			"bufferView":46,
			"componentType":5126,
			"count":48,
			"type":"VEC3"
		},
		{
			"bufferView":47,
			"componentType":5123,
			"count":96,
			"type":"SCALAR"
		}
	],
	"bufferViews":[
		{
			"buffer":0,
			"byteLength":5568,
			"byteOffset":0,
			"target":34962
		},
		{
			"buffer":0,
			"byteLength":3712,
			"byteOffset":5568,
			"target":34962
		},
		{
			"buffer":0,
			"byteLength":5568,
			"byteOffset":9280,
			"target":34962
		},
		{
			"buffer":0,
			"byteLength":1656,
			"byteOffset":14848,
			"target":34963
		},
		{
			"buffer":0,
			"byteLength":3072,
			"byteOffset":16504,
			"target":34962
		},
		{
			"buffer":0,
			"byteLength":2048,
			"byteOffset":19576,
			"target":34962
		},
		{
			"buffer":0,
			"byteLength":3072,
			"byteOffset":21624,
			"target":34962
		},
		{
			"buffer":0,
			"byteLength":1308,
			"byteOffset":24696,
			"target":34963
		},
		{
			"buffer":0,
			"byteLength":5568,
			"byteOffset":26004,
			"target":34962
		},
		{
			"buffer":0,
			"byteLength":3712,
			"byteOffset":31572,
			"target":34962
		},
		{
			"buffer":0,
			"byteLength":5568,
			"byteOffset":35284,
			"target":34962
		},
		{
			"buffer":0,
			"byteLength":3072,
			"byteOffset":40852,
			"target":34962
		},
		{
			"buffer":0,
			"byteLength":2048,
			"byteOffset":43924,
			"target":34962
		},
		{
			"buffer":0,
			"byteLength":3072,
			"byteOffset":45972,
			"target":34962
		},
		{
			"buffer":0,
			"byteLength":5568,
			"byteOffset":49044,
			"target":34962
		},
		{
			"buffer":0,
			"byteLength":3712,
			"byteOffset":54612,
			"target":34962
		},
		{
			"buffer":0,
			"byteLength":5568,
			"byteOffset":58324,
			"target":34962
		},
		{
			"buffer":0,
			"byteLength":3072,
			"byteOffset":63892,
			"target":34962
		},
		{
			"buffer":0,
			"byteLength":2048,
			"byteOffset":66964,
			"target":34962
		},
		{
			"buffer":0,
			"byteLength":3072,
			"byteOffset":69012,
			"target":34962
		},
		{
			"buffer":0,
			"byteLength":16704,
			"byteOffset":72084,
			"target":34962
		},
		{
			"buffer":0,
			"byteLength":11136,
			"byteOffset":88788,
			"target":34962
		},
		{
			"buffer":0,
			"byteLength":16704,
			"byteOffset":99924,
			"target":34962
		},
		{
			"buffer":0,
			"byteLength":4296,
			"byteOffset":116628,
			"target":34963
		},
		{
			"buffer":0,
			"byteLength":99456,
			"byteOffset":120924,
			"target":34962
		},
		{
			"buffer":0,
			"byteLength":66304,
			"byteOffset":220380,
			"target":34962
		},
		{
			"buffer":0,
			"byteLength":99456,
			"byteOffset":286684,
			"target":34962
		},
		{
			"buffer":0,
			"byteLength":26088,
			"byteOffset":386140,
			"target":34963
		},
		{
			"buffer":0,
			"byteLength":18468,
			"byteOffset":412228,
			"target":34962
		},
		{
			"buffer":0,
			"byteLength":12312,
			"byteOffset":430696,
			"target":34962
		},
		{
			"buffer":0,
			"byteLength":18468,
			"byteOffset":443008,
			"target":34962
		},
		{
			"buffer":0,
			"byteLength":5298,
			"byteOffset":461476,
			"target":34963
		},
		{
			"buffer":0,
			"byteLength":2736,
			"byteOffset":466776,
			"target":34962
		},
		{
			"buffer":0,
			"byteLength":1824,
			"byteOffset":469512,
			"target":34962
		},
		{
			"buffer":0,
			"byteLength":2736,
			"byteOffset":471336,
			"target":34962
		},
		{
			"buffer":0,
			"byteLength":720,
			"byteOffset":474072,
			"target":34963
		},
		{
			"buffer":0,
			"byteLength":7020,
			"byteOffset":474792,
			"target":34962
		},
		{
			"buffer":0,
			"byteLength":4680,
			"byteOffset":481812,
			"target":34962
		},
		{
			"buffer":0,
			"byteLength":7020,
			"byteOffset":486492,
			"target":34962
		},
		{
			"buffer":0,
			"byteLength":2046,
			"byteOffset":493512,
			"target":34963
		},
		{
			"buffer":0,
			"byteLength":384,
			"byteOffset":495560,
			"target":34962
		},
		{
			"buffer":0,
			"byteLength":256,
			"byteOffset":495944,
			"target":34962
		},
		{
			"buffer":0,
			"byteLength":384,
			"byteOffset":496200,
			"target":34962
		},
		{
			"buffer":0,
			"byteLength":96,
			"byteOffset":496584,
			"target":34963
		},
		{
			"buffer":0,
			"byteLength":576,
			"byteOffset":496680,
			"target":34962
		},
		{
			"buffer":0,
			"byteLength":384,
			"byteOffset":497256,
			"target":34962
		},
		{
			"buffer":0,
			"byteLength":576,
			"byteOffset":497640,
			"target":34962
		},
		{
			"buffer":0,
			"byteLength":192,
			"byteOffset":498216,
			"target":34963
		}
	],
	"buffers":[
		{
			"byteLength":498408,
			"uri":"data:application/octet-stream;base64,"
		}
	]
}
